#!OML:ASF F:\VICON\USERDATA\INSTALL\rory3\rory3.ASF
:FULLY-SPECIFIED
:DEGREES
97
root 1.20947 17.5589 -13.2626 -2.93032 0.527748 7.57995
lowerback 20.3779 -3.64942 -7.64621
upperback 1.33129 -6.37744 1.70144
thorax -8.87614 -2.7125 7.938
lowerneck -7.36146 -0.904762 -2.33114
upperneck 31.4515 0.385467 -4.69116
head 11.441 -0.700377 -1.29163
rclavicle -8.18993e-014 2.94201e-014
rhumerus -51.1429 -42.9341 -17.8209
rradius 94.8574
rwrist -24.3859
rhand 6.0076 5.55433
rfingers 7.12502
rthumb 31.3306 -21.7836
lclavicle -8.18993e-014 2.94201e-014
lhumerus -44.5907 4.98841 71.7064
lradius 51.4075
lwrist 9.553
lhand -12.1355 49.4426
lfingers 7.12502
lthumb 13.9264 78.9563
rfemur -30.2495 5.84096 8.75373
rtibia 21.9334
rfoot -10.9567 -20.5842
rtoes 14.6958
lfemur 16.2251 -3.37279 -32.552
ltibia 9.80839
lfoot -11.5219 0.45381
ltoes -16.1885
98
root 1.18562 17.5571 -13.1042 -2.64586 0.605291 7.47979
lowerback 19.5154 -3.42276 -6.9952
upperback 1.90917 -5.88149 1.32835
thorax -7.96101 -2.58232 6.91215
lowerneck -8.33843 -1.23177 -1.58763
upperneck 31.236 -0.291825 -4.33112
head 11.5317 -0.875954 -1.3712
rclavicle 5.88403e-014 -7.95139e-015
rhumerus -51.2545 -43.1618 -18.9334
rradius 97.5097
rwrist -22.0276
rhand 5.00587 5.65775
rfingers 7.12502
rthumb 30.3756 -21.8609
lclavicle 5.88403e-014 -7.95139e-015
lhumerus -42.5584 3.75899 71.7366
lradius 51.7701
lwrist 9.79195
lhand -12.2215 49.8416
lfingers 7.12502
lthumb 13.8435 79.361
rfemur -30.3917 5.67437 9.01302
rtibia 21.9764
rfoot -10.5311 -20.1166
rtoes 13.5555
lfemur 15.8613 -3.50013 -32.3562
ltibia 10.8866
lfoot -11.5266 0.272057
ltoes -16.0109
99
root 1.165 17.5705 -12.9336 -2.83004 0.977029 7.29809
lowerback 20.1526 -3.8395 -7.27549
upperback 1.36295 -6.50908 1.8681
thorax -8.71394 -2.80002 7.91673
lowerneck -7.09219 -0.78512 -2.62938
upperneck 30.9667 0.500902 -4.40051
head 11.1982 -0.63369 -1.10643
rclavicle 5.00937e-014 -2.3059e-014
rhumerus -48.2562 -40.6549 -21.5787
rradius 99.5263
rwrist -19.4004
rhand 3.99618 6.07211
rfingers 7.12502
rthumb 29.4121 -21.62
lclavicle 5.00937e-014 -2.3059e-014
lhumerus -43.8006 5.10868 71.9365
lradius 52.5776
lwrist 10.1602
lhand -12.7457 50.5111
lfingers 7.12502
lthumb 13.3383 80.0642
rfemur -29.8897 5.13225 9.51154
rtibia 22.3206
rfoot -9.84572 -19.5185
rtoes 12.0588
lfemur 15.9309 -3.94386 -32.1346
ltibia 12.1189
lfoot -11.5178 -0.000797192
ltoes -14.9702
100
root 1.13988 17.5752 -12.7568 -2.75988 0.670938 7.29562
lowerback 19.3931 -3.48926 -6.95391
upperback 1.8436 -5.93646 1.53605
thorax -7.93854 -2.60754 7.12129
lowerneck -7.63617 -1.01501 -1.71867
upperneck 30.724 0.028617 -4.41324
head 11.1956 -0.740989 -1.32228
rclavicle 4.03533e-014 -5.56597e-015
rhumerus -48.1741 -40.0659 -23.0236
rradius 102.109
rwrist -17.1881
rhand 2.85136 6.12274
rfingers 7.12502
rthumb 28.3185 -21.7562
lclavicle 4.03533e-014 -5.56597e-015
lhumerus -42.1511 4.05096 72.0344
lradius 52.9301
lwrist 11.156
lhand -13.6545 51.0654
lfingers 7.12502
lthumb 12.4622 80.6738
rfemur -29.8177 4.71878 9.99284
rtibia 22.8477
rfoot -9.01087 -18.595
rtoes 11.5737
lfemur 15.5709 -3.88849 -32.1302
ltibia 13.5529
lfoot -11.5261 0.0711303
ltoes -16.839
101
root 1.11272 17.5822 -12.573 -2.921 1.15884 7.13176
lowerback 19.5942 -3.68001 -6.69282
upperback 1.83491 -6.13941 1.58819
thorax -8.04574 -2.70571 7.0984
lowerneck -7.7028 -0.931701 -1.69946
upperneck 30.6892 0.152289 -4.43147
head 11.1978 -0.684743 -1.31792
rclavicle 7.17613e-014 -1.03368e-014
rhumerus -46.733 -38.9729 -25.0191
rradius 104.008
rwrist -14.6201
rhand 2.83326 6.70936
rfingers 7.12502
rthumb 28.3012 -21.1724
lclavicle 7.17613e-014 -1.03368e-014
lhumerus -41.8917 4.2951 72.0273
lradius 53.304
lwrist 11.3243
lhand -14.2818 51.1983
lfingers 7.12502
lthumb 11.8574 80.8426
rfemur -29.2576 4.47334 10.4135
rtibia 23.651
rfoot -8.67068 -18.4805
rtoes 12.8607
lfemur 15.652 -4.33044 -31.8862
ltibia 14.8702
lfoot -11.3398 -0.189911
ltoes -18.667
102
root 1.08323 17.5882 -12.4003 -2.94685 1.27766 6.6962
lowerback 20.3518 -3.76912 -6.39208
upperback 1.17495 -6.23547 1.86173
thorax -9.17681 -2.66758 7.38247
lowerneck -6.73415 -0.847343 -1.88362
upperneck 30.8034 0.295946 -4.531
head 11.0523 -0.646554 -1.30042
rclavicle 5.86415e-014 7.95139e-015
rhumerus -45.6638 -36.7946 -26.6324
rradius 105.737
rwrist -11.6105
rhand 2.4379 7.13933
rfingers 7.12502
rthumb 27.9233 -20.8045
lclavicle 5.86415e-014 7.95139e-015
lhumerus -42.9003 4.62978 71.9783
lradius 53.8685
lwrist 10.6591
lhand -13.343 52.4324
lfingers 7.12502
lthumb 12.7625 82.0223
rfemur -29.0925 4.35902 11.2158
rtibia 24.6865
rfoot -8.32562 -18.2863
rtoes 13.8172
lfemur 15.6482 -4.6178 -31.3415
ltibia 16.0024
lfoot -10.9509 -0.414931
ltoes -19.4448
